<?xml version="1.0" encoding="utf-8"?>
<!-- Generator: Adobe Illustrator 18.1.1, SVG Export Plug-In . SVG Version: 6.00 Build 0)  -->
<svg version="1.1" id="Layer_1" xmlns="http://www.w3.org/2000/svg" xmlns:xlink="http://www.w3.org/1999/xlink" x="0px" y="0px"
	 viewBox="-319 96.1 586 628" enable-background="new -319 96.1 586 628" xml:space="preserve">
<g>
	<g>
		<g>
			<path fill="#2BA9E0" d="M-64.7,601.6c0,12.6-5.5,22.8-18.2,22.8c-12.7,0-18.2-10.2-18.2-22.8v-43h-23.2v43
				c0,24.9,16.1,45,41.3,45c25.1,0,41.5-20.1,41.5-45v-43.1h-23.2L-64.7,601.6z"/>
		</g>
		<g>
			<rect x="168.1" y="532.3" fill="#2BA9E0" width="23.1" height="112.1"/>
		</g>
		<g>
			<polygon fill="#2BA9E0" points="208.3,536.4 214.9,536.4 214.9,554.2 219.7,554.2 219.7,536.4 226.3,536.4 226.3,532.4 
				208.3,532.4 			"/>
		</g>
		<g>
			<polygon fill="#2BA9E0" points="245.7,532.4 240.9,547.4 240.8,547.4 235.7,532.4 228.9,532.4 228.9,554.2 233.4,554.2 
				233.4,538.9 233.4,538.9 238.8,554.2 242.6,554.2 247.9,538.8 248,538.8 248,554.2 252.5,554.2 252.5,532.4 			"/>
		</g>
		<g>
			<path fill="#2BA9E0" d="M-176.2,573.7c-0.3,0.5-0.3,0.8-1.2,0.8c-0.7,0-0.8-0.8-0.8-0.8l-2.5-15h-20.7v85.6h23.2V598
				c0-3.8,10.3-21.9,30.3-17.3c10.1,2.4,14.4,6.6,14.4,6.6s0-16.5,0-26.1c-3.7-1.9-6.3-2.9-9.7-3.6
				C-163.1,553.1-175.7,572.7-176.2,573.7z"/>
		</g>
		<g>
			<path fill="#2BA9E0" d="M12.5,556.9c-25.3,0-45.8,20.3-45.8,45.3c0,0,0,62,0,70.3H-10v-30.8l0-11.5c0,0,0-0.9,0.9-0.9
				c0.7,0,0.9,0.5,1.1,0.9c1.8,4.3,11.5,20.9,32.9,15.7c19.2-5.4,33.3-22.9,33.3-43.6C58.3,577.2,37.8,556.9,12.5,556.9z
				 M12.5,625.2c-12.8,0-23.2-10.3-23.2-22.9c0-12.7,10.4-22.9,23.2-22.9c12.8,0,23.2,10.3,23.2,22.9
				C35.7,614.9,25.3,625.2,12.5,625.2z"/>
		</g>
		<g>
			<path fill="#2BA9E0" d="M112.9,556.9c-25.3,0-45.8,20.3-45.8,45.3c0,20.8,14.1,38.3,33.4,43.6c21.5,5.2,31.2-11.3,32.9-15.7
				c0.2-0.4,0.4-0.9,1.1-0.9c0.8,0,0.9,0.9,0.9,0.9l0,14.2h23.3v-42.1C158.7,577.2,138.2,556.9,112.9,556.9z M112.9,625.2
				c-12.8,0-23.2-10.3-23.2-22.9c0-12.7,10.4-22.9,23.2-22.9c12.8,0,23.2,10.3,23.2,22.9C136.1,614.9,125.7,625.2,112.9,625.2z"/>
		</g>
		<g>
			<path fill="#2BA9E0" d="M-272.2,532.3h-28.3v112h26.4c34.7,0,62.3-6.7,62.3-56C-211.8,538.5-237.9,532.3-272.2,532.3z
				 M-267.6,625l-9.6-0.2v-73.1h9.3c21.4,0,32.6,3,32.6,36.6C-235.2,623.3-247.9,625-267.6,625z"/>
		</g>
	</g>
	<g>
		<g>
			<path fill="#2BA9E0" d="M-69.7,312.5c-29.1,0-52.7,23.6-52.7,52.7c0,29.1,23.6,52.7,52.7,52.7c29.1,0,52.7-23.6,52.7-52.7
				C-17,336.1-40.6,312.5-69.7,312.5z"/>
		</g>
		<g>
			<path fill="#2BA9E0" d="M-4.1,302.4c15.6,16.3,25.2,38.4,25.2,62.8c0,30.9-15.4,58.1-38.9,74.5c43.5-13.4,79.5-46.1,95.6-85.7
				c22.3-54.8,1.5-96-33.3-133.4c1.1,4.8,1.7,9.9,1.7,15C46.1,267.4,24.9,294.1-4.1,302.4z"/>
		</g>
		<g>
			<path fill="#2BA9E0" d="M-63.7,235.7c0,22.3,18.1,40.3,40.3,40.3S17,257.9,17,235.7c0-22.3-18.1-40.3-40.3-40.3
				S-63.7,213.4-63.7,235.7z"/>
		</g>
		<g>
			<path fill="#2BA9E0" d="M-139.2,423.7c-13.3-15.8-21.3-36.2-21.3-58.5c0-46.5,34.9-84.8,80-90.1c-7.7-11.2-12.3-24.8-12.3-39.4
				c0-38.4,31.1-69.4,69.5-69.4c3.2,0,6.3,0.2,9.3,0.6c-22.7-19.6-45.4-39.5-63.3-61.2c9.1,95.2-86.7,60.6-122.2,148.4
				C-223.2,312.9-201.8,385.6-139.2,423.7z"/>
		</g>
	</g>
</g>
</svg>
